<?xml version="1.0" encoding="utf-8"?>
<!-- Generator: Adobe Illustrator 24.1.2, SVG Export Plug-In . SVG Version: 6.00 Build 0)  -->
<svg version="1.1" id="Camada_1" xmlns="http://www.w3.org/2000/svg" xmlns:xlink="http://www.w3.org/1999/xlink" x="0px" y="0px"
	 viewBox="0 0 213 139" style="enable-background:new 0 0 213 139;" xml:space="preserve">
<style type="text/css">
	.st0{fill:#CA3D4A;}
	.st1{fill:#F8C774;}
	.st2{fill:#832B19;}
	.st3{fill:#EFB561;}
	.st4{fill:#F6B75B;}
	.st5{fill:#F9E7A2;}
	.st6{fill:#DA6130;}
	.st7{fill:#E57D84;}
	.st8{fill:#AF333F;}
	.st9{fill:#15914B;}
	.st10{fill:#66A630;}
	.st11{fill:#F5AC58;}
	.st12{fill:#503836;}
	.st13{font-family:'BreeSerif-Regular';}
	.st14{font-size:30px;}
</style>
<g id="XMLID_47_">
	<polygon id="XMLID_50_" class="st0" points="11.29,89.42 23.25,110.87 11.29,132.32 202.72,132.32 190.75,110.87 202.72,89.42 	"/>
	<g id="XMLID_51_">
		<path id="XMLID_52_" class="st1" d="M39.31,84.78c2.24,0.19,54.26,0.37,54.82,0.37c0.56,0,20.7,0,20.7,0l57.99,0.19l13.85,1.03
			c0.01-0.41,0.03-0.81,0.02-1.22c-0.19-23.7-9.13-41.72-26.08-57.8c-14.42-13.69-32.65-21.81-52.68-21.81
			c-26.22,0-48.75,10.24-64.32,31.64C33.8,50.66,27.22,67.77,27.29,84.6C31.47,84.6,37.67,84.64,39.31,84.78z"/>
		<path id="XMLID_53_" class="st2" d="M94.13,85.15c0.56,0,20.7,0,20.7,0l56.11,0.18c0.33-14.48-3.84-28.44-12.99-39.98
			c-13.27-16.73-31.21-25.92-52.75-25.02c-18.13,0.75-37.47,8.43-47.97,23.59c-8.31,12-13.62,26.3-14.17,40.93
			C55.41,85.01,93.65,85.15,94.13,85.15z"/>
		<path id="XMLID_54_" class="st3" d="M186.69,84.89c-12.65-0.96-25.46-1.11-38.11-1.11c-0.68,0-1.37,0-2.05,0
			c-7.63-0.02-15.26-0.08-22.89,0.06c-5.18,0.1-10.33,0.37-15.49,0.47c0.78-0.79,1.56-1.59,2.36-2.37c1.14-1.11,2.32-2.19,3.43-3.33
			c2.5-2.57,4.98-5.14,7.47-7.72c4.98-5.14,10-10.26,15.21-15.17c9.01-8.5,18.34-16.61,27.54-24.89c-0.48-0.5-0.99-1-1.48-1.5
			c-9.17,7.9-17.93,16.39-26.49,24.9c-0.17,0.17-0.34,0.33-0.5,0.5c-5.13,5.11-10.31,10.18-15.38,15.35
			c-2.51,2.56-4.99,5.15-7.42,7.79c-1.79,1.94-3.61,3.84-5.43,5.74c-0.01-0.27-0.01-0.55-0.02-0.82c-0.07-2.43,0.13-4.86,0.09-7.28
			c-0.05-3.57-0.13-7.15-0.19-10.72c-0.12-7.15-0.2-14.31,0-21.46c0.35-12.6,1.22-25.16,1.86-37.74c-0.42-0.01-0.83-0.03-1.25-0.03
			c-0.3,0-0.59,0.02-0.88,0.02c-0.95,12.52-1.09,25.19-1.09,37.72c0,0.68,0,1.37,0,2.05c-0.02,7.61-0.08,15.22,0.06,22.83
			c0.1,5.17,0.37,10.3,0.47,15.45c-0.79-0.78-1.6-1.55-2.37-2.35c-1.11-1.14-2.19-2.31-3.34-3.42c-2.57-2.49-5.16-4.97-7.74-7.45
			c-5.16-4.97-10.29-9.97-15.22-15.17c-8.73-9.2-17.05-18.73-25.55-28.12c-0.5,0.49-0.98,0.99-1.47,1.49
			c8.08,9.38,16.8,18.33,25.54,27.07c0.17,0.17,0.34,0.33,0.5,0.5c5.13,5.12,10.2,10.28,15.4,15.34c2.57,2.5,5.17,4.98,7.81,7.4
			c1.94,1.78,3.84,3.59,5.73,5.4c-1.11,0.01-2.21,0.03-3.32,0.01c-1.59-0.02-3.19-0.09-4.78-0.07c-3.58,0.05-7.17,0.13-10.75,0.19
			c-7.17,0.12-14.35,0.2-21.52,0c-12.72-0.35-25.39-1.23-38.09-1.87c-0.02,0.7-0.05,1.41-0.05,2.11c12.41,0.94,24.97,1.1,37.4,1.11
			c0.24,0,0.47,0,0.71,0c7.25,0,14.51,0.08,21.76-0.01c3.59-0.04,7.18-0.12,10.77-0.27c2.64-0.11,15.94-0.17,18.37-0.21
			c3.58-0.05,7.17-0.13,10.75-0.19c7.17-0.12,14.35-0.2,21.52,0c12.72,0.35,25.4,1.23,38.1,1.87c0.01-0.68,0.05-1.36,0.04-2.04
			C186.69,84.94,186.69,84.92,186.69,84.89z"/>
		<path id="XMLID_55_" class="st4" d="M94.13,85.15c0.56,0,20.7,0,20.7,0l54.56,0.18c-0.19-6.37-1.4-12.85-3.54-19.59
			c-4.77-15.07-14.32-27.72-28.25-35.43c-18.24-10.08-37.85-11.62-56.91-2.73c-16.04,7.49-30.58,21.67-34.34,39.26
			c-1.26,5.9-1.87,11.97-1.79,18.03C58.24,85.02,93.67,85.15,94.13,85.15z"/>
		<path id="XMLID_56_" class="st5" d="M94.13,85.15c0.56,0,20.7,0,20.7,0l53.7,0.17c0.04-4.62-0.44-9.27-1.58-13.92
			c-4.86-19.88-16.79-35.07-35.91-42.92c-16.09-6.61-36.01-7.67-51.22,1.33c-13.15,7.77-24.29,19.36-30.39,33.47
			c-3.09,7.15-4.76,14.42-5.09,21.59C57.85,85.02,93.66,85.15,94.13,85.15z"/>
		<g id="XMLID_57_">
			<path id="XMLID_1516_" class="st0" d="M78.2,50.85c4.68-1.94,10.45-1.12,13.81,4.67c2.53,4.36,2.33,9.79-1.38,13.42
				c-4.33,4.24-11.27,4.64-15.72,0.38C67.14,61.87,71.57,53.6,78.2,50.85z"/>
			<path id="XMLID_1514_" class="st6" d="M78.47,55.48c2.14,1.97,5.02,5.83,4.75,5.94c-1.98,0.83-6.78,3.71-8.92,2.57
				c-2.5-1.33-1.22-9.86,2.42-9.64C77.12,54.38,77.76,54.83,78.47,55.48z"/>
			<path id="XMLID_1513_" class="st7" d="M81.04,63.54c0.63-0.31,1.28-0.59,1.94-0.85c0.13-0.05,0.25-0.1,0.39-0.1
				c0.59-0.01,0.82,0.79,0.68,1.36c-0.76,2.92-0.46,8.96-5,5.78C74.88,66.82,77.4,65.32,81.04,63.54z"/>
			<path id="XMLID_1512_" class="st7" d="M85.24,63.34c0.12-0.67,0.42-1.34,1.08-2.12c1.7,0.84,4.33,3.22,3.88,5.2
				c-0.08,0.34-0.32,0.64-0.58,0.91c-1.08,1.12-2.6,1.92-4.18,2.19c-0.04,0.01-0.15-3.38-0.17-3.62
				C85.22,64.95,85.1,64.14,85.24,63.34z"/>
			<path id="XMLID_1511_" class="st7" d="M84.31,59.23c1.05,0.49,2.05,0.18,2.82-1.76c0.29-0.73,0.55-1.51,0.44-2.28
				c-0.19-1.31-1.43-2.27-2.72-2.55c-1.29-0.29-2.64-0.04-3.94,0.2c-0.57,0.11-1.28,0.38-1.26,0.96c0.01,0.24,0.16,0.46,0.3,0.65
				C81.06,55.95,82.74,58.49,84.31,59.23z"/>
			<path id="XMLID_1510_" class="st6" d="M87.88,53.93c1.15,1.35,2.15,2.7,2.68,4.64c0.38,1.39,0.26,3.04,0.12,4.45
				c-0.07,0.66-0.29,3.04,0.75,2.97c0.63-0.04,1.15-1.51,1.21-2c0.45-3.61-0.77-7.34-2.85-10.25c-0.41-0.58-2.95-2.98-3.36-1.5
				C86.92,52.83,87.41,53.38,87.88,53.93z"/>
		</g>
		<g id="XMLID_58_">
			<path id="XMLID_1508_" class="st0" d="M77.87,32.02c3.31-1.37,7.39-0.79,9.76,3.3c1.79,3.08,1.65,6.92-0.98,9.49
				c-3.06,3-7.97,3.28-11.12,0.27C70.05,39.81,73.18,33.96,77.87,32.02z"/>
			<path id="XMLID_1507_" class="st6" d="M78.06,35.29c1.52,1.39,3.55,4.12,3.36,4.2c-1.4,0.59-4.79,2.62-6.31,1.82
				c-1.77-0.94-0.86-6.97,1.71-6.82C77.11,34.51,77.56,34.83,78.06,35.29z"/>
			<path id="XMLID_1506_" class="st7" d="M79.88,40.99c0.45-0.22,0.91-0.42,1.37-0.6c0.09-0.03,0.18-0.07,0.27-0.07
				c0.41-0.01,0.58,0.56,0.48,0.96c-0.54,2.06-0.33,6.33-3.54,4.09C75.52,43.31,77.3,42.25,79.88,40.99z"/>
			<path id="XMLID_1505_" class="st7" d="M82.85,40.84c0.08-0.47,0.29-0.95,0.77-1.5c1.2,0.59,3.06,2.28,2.74,3.68
				c-0.05,0.24-0.23,0.45-0.41,0.65c-0.76,0.79-1.84,1.36-2.96,1.55c-0.03,0.01-0.11-2.39-0.12-2.56
				C82.83,41.98,82.75,41.41,82.85,40.84z"/>
			<path id="XMLID_1504_" class="st7" d="M82.19,37.94c0.74,0.35,1.45,0.13,1.99-1.24c0.2-0.52,0.39-1.06,0.31-1.61
				c-0.13-0.93-1.01-1.6-1.92-1.81c-0.91-0.2-1.86-0.03-2.78,0.14c-0.4,0.07-0.9,0.27-0.89,0.68c0.01,0.17,0.11,0.32,0.22,0.46
				C79.89,35.62,81.08,37.42,82.19,37.94z"/>
			<path id="XMLID_1503_" class="st6" d="M84.72,34.2c0.81,0.95,1.52,1.91,1.89,3.28c0.27,0.98,0.18,2.15,0.08,3.15
				c-0.05,0.47-0.2,2.15,0.53,2.1c0.44-0.03,0.81-1.07,0.85-1.41c0.32-2.55-0.55-5.19-2.02-7.25c-0.29-0.41-2.09-2.11-2.38-1.06
				C84.03,33.42,84.38,33.81,84.72,34.2z"/>
		</g>
		<g id="XMLID_65_">
			<path id="XMLID_1502_" class="st0" d="M53.63,64.84c3.31-1.37,7.39-0.79,9.76,3.3c1.79,3.08,1.65,6.92-0.98,9.49
				c-3.06,3-7.97,3.28-11.12,0.27C45.81,72.63,48.94,66.78,53.63,64.84z"/>
			<path id="XMLID_1501_" class="st6" d="M53.82,68.11c1.52,1.39,3.55,4.12,3.36,4.2c-1.4,0.59-4.79,2.62-6.31,1.82
				c-1.77-0.94-0.86-6.97,1.71-6.82C52.87,67.33,53.31,67.65,53.82,68.11z"/>
			<path id="XMLID_1497_" class="st7" d="M55.64,73.81c0.45-0.22,0.91-0.42,1.37-0.6c0.09-0.03,0.18-0.07,0.27-0.07
				c0.41-0.01,0.58,0.56,0.48,0.96c-0.54,2.06-0.33,6.33-3.54,4.09C51.28,76.13,53.06,75.06,55.64,73.81z"/>
			<path id="XMLID_1496_" class="st7" d="M58.61,73.66c0.08-0.47,0.29-0.95,0.77-1.5c1.2,0.59,3.06,2.28,2.74,3.68
				c-0.05,0.24-0.23,0.45-0.41,0.65c-0.76,0.79-1.84,1.36-2.96,1.55c-0.03,0.01-0.11-2.39-0.12-2.56
				C58.59,74.8,58.51,74.23,58.61,73.66z"/>
			<path id="XMLID_1495_" class="st7" d="M57.95,70.76c0.74,0.35,1.45,0.13,1.99-1.24c0.2-0.52,0.39-1.06,0.31-1.61
				c-0.13-0.93-1.01-1.6-1.92-1.81c-0.91-0.2-1.86-0.03-2.78,0.14c-0.4,0.07-0.9,0.27-0.89,0.68c0.01,0.17,0.11,0.32,0.22,0.46
				C55.65,68.44,56.83,70.24,57.95,70.76z"/>
			<path id="XMLID_1493_" class="st6" d="M60.48,67.01c0.81,0.95,1.52,1.91,1.89,3.28c0.27,0.98,0.18,2.15,0.08,3.15
				c-0.05,0.47-0.2,2.15,0.53,2.1c0.44-0.03,0.81-1.07,0.85-1.41c0.32-2.55-0.55-5.19-2.02-7.25c-0.29-0.41-2.09-2.11-2.38-1.06
				C59.79,66.23,60.14,66.62,60.48,67.01z"/>
		</g>
		<g id="XMLID_72_">
			<path id="XMLID_1492_" class="st0" d="M146.68,52.9c3.31-1.37,7.39-0.79,9.76,3.3c1.79,3.08,1.65,6.92-0.98,9.49
				c-3.06,3-7.97,3.28-11.12,0.27C138.85,60.69,141.99,54.84,146.68,52.9z"/>
			<path id="XMLID_1491_" class="st6" d="M146.87,56.18c1.52,1.39,3.55,4.12,3.36,4.2c-1.4,0.59-4.79,2.62-6.31,1.82
				c-1.77-0.94-0.86-6.97,1.71-6.82C145.91,55.4,146.36,55.71,146.87,56.18z"/>
			<path id="XMLID_1490_" class="st7" d="M148.68,61.87c0.45-0.22,0.91-0.42,1.37-0.6c0.09-0.03,0.18-0.07,0.27-0.07
				c0.41-0.01,0.58,0.56,0.48,0.96c-0.54,2.06-0.33,6.33-3.54,4.09C144.33,64.19,146.11,63.13,148.68,61.87z"/>
			<path id="XMLID_1303_" class="st7" d="M151.65,61.73c0.08-0.47,0.29-0.95,0.77-1.5c1.2,0.59,3.06,2.28,2.74,3.68
				c-0.05,0.24-0.23,0.45-0.41,0.65c-0.76,0.79-1.84,1.36-2.96,1.55c-0.03,0.01-0.11-2.39-0.12-2.56
				C151.64,62.87,151.55,62.3,151.65,61.73z"/>
			<path id="XMLID_920_" class="st7" d="M150.99,58.82c0.74,0.35,1.45,0.13,1.99-1.24c0.2-0.52,0.39-1.06,0.31-1.61
				c-0.13-0.93-1.01-1.6-1.92-1.81c-0.91-0.2-1.86-0.03-2.78,0.14c-0.4,0.07-0.9,0.27-0.89,0.68c0.01,0.17,0.11,0.32,0.21,0.46
				C148.7,56.51,149.88,58.3,150.99,58.82z"/>
			<path id="XMLID_755_" class="st6" d="M153.52,55.08c0.81,0.95,1.52,1.91,1.89,3.28c0.27,0.98,0.18,2.15,0.08,3.15
				c-0.05,0.47-0.2,2.15,0.53,2.1c0.44-0.03,0.81-1.07,0.85-1.41c0.32-2.55-0.55-5.19-2.02-7.25c-0.29-0.41-2.09-2.11-2.38-1.06
				C152.84,54.3,153.19,54.69,153.52,55.08z"/>
		</g>
		<g id="XMLID_79_">
			<path id="XMLID_754_" class="st0" d="M131.01,39.37c0.55,3.91-1.19,8.11-6.23,9.52c-3.79,1.06-7.85-0.15-9.87-3.67
				c-2.36-4.1-1.31-9.42,2.79-11.95C124.85,28.86,130.23,33.82,131.01,39.37z"/>
			<path id="XMLID_725_" class="st7" d="M127.27,39.84c-0.64,0.31-4.87,2.06-4.99,1.44c-0.13-0.7-0.27-1.4-0.24-2.11
				c0.01-0.32,0.05-0.63,0.1-0.95c0.16-1.04,0.37-2.08,0.64-3.1c0.11-0.44,0.26-0.92,0.64-1.17c0.32-0.22,0.75-0.23,1.12-0.11
				c1.61,0.49,4.99,3.06,4.06,5.05C128.46,39.18,127.95,39.51,127.27,39.84z"/>
			<path id="XMLID_724_" class="st6" d="M120.87,39.04c0.11,0.54,0.2,1.08,0.26,1.63c0.01,0.1,0.02,0.21,0,0.31
				c-0.11,0.45-0.76,0.47-1.16,0.25c-2.06-1.15-6.68-2.1-3.39-4.91C119.6,33.74,120.24,35.94,120.87,39.04z"/>
			<path id="XMLID_714_" class="st6" d="M120.2,42.45c0.2,0.03,0.4,0.04,0.6,0.04c0.08,0,0.16,0,0.22,0.04
				c0.77,0.5-1.82,3.28-2.14,3.62c-0.1,0.11-0.22,0.23-0.37,0.25c-0.12,0.02-0.25-0.03-0.37-0.08c-1.56-0.68-3.2-2.93-3.02-4.68
				C116.76,41.04,118.46,42.21,120.2,42.45z"/>
			<path id="XMLID_709_" class="st6" d="M122.16,43.08c-0.13,0.89,0.18,2.38,0.31,2.78c0.53,1.65,2.11,1.64,3.31,0.6
				c0.78-0.68,1.25-1.63,1.71-2.56c0.2-0.4,0.36-0.98-0.01-1.23c-0.16-0.11-0.36-0.11-0.55-0.11c-1.43-0.01-2.83,0.18-4.21-0.13
				c-0.07-0.02-0.15-0.03-0.22,0C122.3,42.52,122.2,42.76,122.16,43.08z"/>
			<path id="XMLID_704_" class="st8" d="M129.29,40.59c-0.55,3.24-2.42,6.03-5.39,7.54c3.67-0.14,5.61-3.25,6.46-6.5
				c0.14-0.53,0.3-3.26-0.79-2.76C129.47,39.46,129.39,40.03,129.29,40.59z"/>
			<path id="XMLID_240_" class="st6" d="M126.1,35.86c0.05-0.19,0.08-0.39,0.04-0.58c-0.4-1.83-3.78-2.03-4.12-0.05
				c-0.31,1.83-0.08,4.14,0.6,5.89c2-1.21,2.71-2.96,3.4-5.01C126.05,36.03,126.08,35.95,126.1,35.86z"/>
		</g>
		<g id="XMLID_86_">
			<path id="XMLID_96_" class="st0" d="M94.27,84.96c-2.16-4.24-7.06-6.88-13.18-3.1c-1.3,0.8-2.3,1.88-3.02,3.1H94.27z"/>
			<path id="XMLID_99_" class="st7" d="M91.98,84.96c-1.01-1.2-2.58-2.2-3.55-2.49c-0.4-0.12-0.86-0.11-1.2,0.12
				c-0.41,0.27-0.57,0.78-0.69,1.26c-0.1,0.37-0.18,0.74-0.26,1.11C86.28,84.96,91.98,84.96,91.98,84.96z"/>
			<path id="XMLID_102_" class="st6" d="M90.01,84.96c0.01-0.02,0.01-0.03,0.02-0.05c0.03-0.09,0.06-0.18,0.08-0.27
				c0.06-0.2,0.09-0.41,0.05-0.62c-0.43-1.97-4.06-2.18-4.42-0.05c-0.05,0.32-0.09,0.65-0.11,0.99
				C85.63,84.96,90.01,84.96,90.01,84.96z"/>
		</g>
		<g id="XMLID_103_">
			<path id="XMLID_239_" class="st0" d="M132.31,70.52c0.59,4.2-1.28,8.72-6.69,10.23c-4.07,1.14-8.44-0.17-10.61-3.94
				c-2.53-4.41-1.4-10.13,2.99-12.85C125.68,59.22,131.47,64.55,132.31,70.52z"/>
			<path id="XMLID_238_" class="st7" d="M128.29,71.02c-0.69,0.33-5.24,2.22-5.36,1.54c-0.14-0.75-0.29-1.51-0.26-2.27
				c0.01-0.34,0.06-0.68,0.11-1.02c0.17-1.12,0.4-2.23,0.68-3.33c0.12-0.47,0.28-0.98,0.69-1.26c0.35-0.23,0.8-0.24,1.2-0.12
				c1.73,0.53,5.36,3.29,4.36,5.43C129.57,70.31,129.02,70.67,128.29,71.02z"/>
			<path id="XMLID_237_" class="st6" d="M121.41,70.16c0.12,0.58,0.21,1.16,0.28,1.75c0.01,0.11,0.03,0.23,0,0.34
				c-0.11,0.48-0.81,0.5-1.24,0.26c-2.21-1.23-7.18-2.26-3.64-5.28C120.04,64.46,120.73,66.83,121.41,70.16z"/>
			<path id="XMLID_236_" class="st6" d="M120.69,73.83c0.22,0.03,0.43,0.05,0.65,0.04c0.08,0,0.17,0,0.24,0.04
				c0.82,0.54-1.96,3.52-2.3,3.89c-0.11,0.12-0.24,0.25-0.4,0.27c-0.13,0.02-0.27-0.03-0.39-0.08c-1.68-0.73-3.44-3.15-3.25-5.03
				C116.99,72.31,118.82,73.57,120.69,73.83z"/>
			<path id="XMLID_235_" class="st6" d="M122.79,74.5c-0.14,0.96,0.2,2.55,0.33,2.98c0.57,1.78,2.27,1.76,3.56,0.65
				c0.84-0.73,1.35-1.75,1.83-2.75c0.21-0.43,0.38-1.05-0.02-1.32c-0.17-0.12-0.39-0.12-0.59-0.12c-1.54-0.01-3.04,0.2-4.53-0.14
				c-0.08-0.02-0.16-0.03-0.23,0C122.95,73.9,122.84,74.16,122.79,74.5z"/>
			<path id="XMLID_225_" class="st8" d="M130.46,71.83c-0.59,3.48-2.6,6.48-5.8,8.11c3.95-0.15,6.04-3.49,6.94-6.99
				c0.15-0.57,0.32-3.5-0.84-2.97C130.65,70.61,130.56,71.23,130.46,71.83z"/>
			<path id="XMLID_205_" class="st6" d="M127.03,66.74c0.06-0.2,0.09-0.41,0.05-0.62c-0.43-1.97-4.06-2.18-4.42-0.05
				c-0.34,1.97-0.09,4.45,0.64,6.33c2.15-1.3,2.91-3.18,3.65-5.39C126.98,66.93,127.01,66.84,127.03,66.74z"/>
		</g>
		<path id="XMLID_113_" class="st9" d="M92.88,40.41c-2.18,0-2.19,3.39,0,3.39C95.06,43.8,95.06,40.41,92.88,40.41z"/>
		<path id="XMLID_114_" class="st10" d="M101.46,56.2c-0.1,0-0.1,0.15,0,0.15C101.55,56.35,101.55,56.2,101.46,56.2z"/>
		<path id="XMLID_117_" class="st9" d="M101.17,59.54c-1.26-1.26-3.18-0.56-3.74,0.99c-0.03,0.07-0.05,0.14-0.08,0.22
			c-0.53,1.48,1.14,3.14,2.61,2.61c0.07-0.03,0.14-0.05,0.22-0.08C101.74,62.73,102.43,60.8,101.17,59.54z"/>
		<path id="XMLID_120_" class="st9" d="M124.41,53.96c-0.04-0.03-0.09-0.06-0.13-0.09c-1.52-1.01-3.55,0.33-3.55,2.04
			s2.03,3.05,3.55,2.04c0.04-0.03,0.09-0.06,0.13-0.09C125.86,56.89,125.86,54.92,124.41,53.96z"/>
		<path id="XMLID_123_" class="st9" d="M60.43,56c-0.17,0-0.33,0-0.5,0c-2.27,0.01-2.27,3.51,0,3.53c0.17,0,0.33,0,0.5,0
			C62.7,59.53,62.71,56,60.43,56z"/>
		<path id="XMLID_126_" class="st9" d="M154.79,72.37c-1.41,0-2.48,1.39-2.11,2.77c0.02,0.06,0.03,0.12,0.05,0.17
			c0.55,2.03,3.57,2.04,4.12,0c0.02-0.06,0.03-0.12,0.05-0.17C157.26,73.76,156.2,72.37,154.79,72.37z"/>
		<path id="XMLID_127_" class="st11" d="M138,36.34c-3.58,0-3.58,5.56,0,5.56C141.58,41.9,141.59,36.34,138,36.34z"/>
		<path id="XMLID_128_" class="st11" d="M98.69,26.9c-0.07-0.04-0.15-0.08-0.22-0.12c-1.96-1.05-4.06,1.05-3.01,3.01
			c0.04,0.08,0.08,0.15,0.12,0.22c0.7,1.3,2.57,1.47,3.58,0.46C100.16,29.47,99.99,27.6,98.69,26.9z"/>
		<path id="XMLID_129_" class="st11" d="M69.38,71.18c-1.41,0-2.63,1.45-2.17,2.85c0.05,0.15,0.1,0.3,0.15,0.46
			c0.64,2,3.41,2,4.06,0c0.05-0.15,0.1-0.3,0.15-0.46C72.01,72.62,70.8,71.18,69.38,71.18z"/>
		<path id="XMLID_130_" class="st11" d="M112.27,63.92c-2.16,0-2.16,3.36,0,3.36S114.43,63.92,112.27,63.92z"/>
		<path id="XMLID_204_" class="st12" d="M145.11,79.01c0.97,0.01,1.95,0.01,2.92,0.02c0.25,0,0.51,0,0.74-0.1
			c0.48-0.21,0.69-0.82,0.58-1.33s-0.46-0.94-0.84-1.3c-1.47-1.42-3.59-2.2-5.61-1.88c-2.02,0.31-3.86,1.79-4.44,3.75
			c-0.24,0.79-0.22,1.76,0.39,2.33c0.49,0.45,1.26,0.51,1.9,0.3c0.64-0.2,1.19-0.62,1.72-1.03c0,1.01,0.12,2.03,0.35,3.02
			c0.11,0.46,0.3,0.98,0.75,1.12c0.21,0.07,0.44,0.04,0.67,0c0.63-0.1,1.28-0.22,1.83-0.55s1-0.9,1-1.54
			c0.01-1.3-1.59-1.95-2.21-3.09"/>
		<path id="XMLID_203_" class="st12" d="M103.34,41.72c0.97,0.01,1.95,0.01,2.92,0.02c0.25,0,0.51,0,0.74-0.1
			c0.48-0.21,0.69-0.82,0.58-1.33s-0.46-0.94-0.84-1.3c-1.47-1.42-3.59-2.2-5.61-1.88c-2.02,0.31-3.86,1.79-4.44,3.75
			c-0.24,0.79-0.22,1.76,0.39,2.33c0.49,0.45,1.26,0.51,1.9,0.3c0.64-0.2,1.19-0.62,1.72-1.03c0,1.01,0.12,2.03,0.35,3.02
			c0.11,0.46,0.3,0.98,0.75,1.12c0.21,0.07,0.44,0.04,0.67,0c0.63-0.1,1.28-0.22,1.83-0.55s1-0.9,1-1.54
			c0.01-1.3-1.59-1.95-2.21-3.09"/>
		<path id="XMLID_40_" class="st12" d="M99.99,70.62c-0.43-0.87-0.86-1.75-1.29-2.62c-0.11-0.22-0.23-0.45-0.42-0.61
			c-0.4-0.34-1.04-0.25-1.45,0.08c-0.41,0.33-0.63,0.83-0.79,1.33c-0.61,1.95-0.36,4.2,0.83,5.86c1.19,1.67,3.33,2.65,5.34,2.29
			c0.82-0.15,1.68-0.59,1.91-1.39c0.18-0.65-0.11-1.35-0.58-1.83s-1.09-0.78-1.69-1.07c0.91-0.45,1.76-1.01,2.54-1.67
			c0.36-0.3,0.74-0.71,0.67-1.17c-0.03-0.22-0.17-0.41-0.3-0.6c-0.37-0.52-0.77-1.05-1.31-1.39c-0.54-0.35-1.25-0.49-1.83-0.2
			c-1.17,0.57-1.03,2.3-1.77,3.36"/>
		<path id="XMLID_131_" class="st1" d="M169.34,84.21c-6.93-0.2-13.87-0.26-20.76-0.26c-0.68,0-1.37,0-2.05,0
			c-7.63-0.02-15.26-0.08-22.89,0.06c-5.18,0.1-10.33,0.37-15.49,0.47c0.78-0.79,1.56-1.6,2.36-2.37c1.14-1.11,2.32-2.19,3.43-3.34
			c2.5-2.57,4.98-5.16,7.47-7.74c4.98-5.16,10-10.29,15.21-15.22c5.08-4.8,10.26-9.48,15.46-14.14c-0.45-0.49-0.92-0.98-1.39-1.45
			c-4.92,4.63-9.76,9.36-14.51,14.11c-0.17,0.17-0.34,0.34-0.5,0.5c-5.13,5.13-10.31,10.2-15.38,15.4
			c-2.51,2.57-4.99,5.17-7.42,7.81c-1.79,1.95-3.61,3.85-5.43,5.75c-0.01-0.27-0.01-0.55-0.02-0.82c-0.07-2.43,0.13-4.87,0.09-7.3
			c-0.05-3.58-0.13-7.17-0.19-10.75c-0.12-7.17-0.2-14.35,0-21.52c0.2-7.21,0.57-14.41,0.97-21.6c-0.68-0.02-1.36-0.05-2.04-0.05
			c-0.22,7.22-0.29,14.45-0.29,21.63c0,0.68,0,1.37,0,2.05c-0.02,7.63-0.08,15.26,0.06,22.89c0.1,5.18,0.37,10.33,0.47,15.49
			c-0.79-0.78-1.6-1.56-2.37-2.36c-1.11-1.14-2.19-2.32-3.34-3.43c-2.57-2.5-5.16-4.98-7.74-7.47c-5.16-4.98-10.29-10-15.22-15.21
			c-5-5.28-9.86-10.68-14.7-16.09c-0.5,0.46-1,0.91-1.48,1.38c4.82,5.14,9.75,10.18,14.7,15.14c0.17,0.17,0.34,0.34,0.5,0.5
			c5.13,5.13,10.2,10.31,15.4,15.38c2.57,2.51,5.17,4.99,7.81,7.42c1.94,1.79,3.84,3.6,5.73,5.41c-1.11,0.01-2.21,0.03-3.32,0.01
			c-1.59-0.02-3.19-0.09-4.78-0.07c-3.58,0.05-7.17,0.13-10.75,0.19c-7.17,0.12-14.35,0.2-21.52,0c-6.96-0.19-14.49-0.68-21.44-1.07
			c0,0.68-0.02,1.37,0,2.05c6.71,0.19,14.03,0.37,20.7,0.38c0.24,0,0.47,0,0.71,0c7.25,0,14.51,0.08,21.76-0.01
			c3.59-0.04,7.18-0.12,10.77-0.27c2.64-0.11,15.94-0.17,18.37-0.21c3.58-0.05,7.17-0.13,10.75-0.19c7.17-0.12,14.35-0.2,21.52,0
			c6.96,0.19,13.9,0.55,20.84,0.93C169.39,85.57,169.37,84.89,169.34,84.21z"/>
	</g>
	<text id="XMLID_132_" transform="matrix(1 0 0 1 55.9299 119.144)" class="st1 st13 st14">PizzaJS</text>
	<g id="XMLID_133_">
		<circle id="XMLID_39_" class="st1" cx="179.44" cy="110.87" r="2.98"/>
		<path id="XMLID_38_" class="st1" d="M37.73,110.87c0,1.65-1.34,2.98-2.98,2.98c-1.65,0-2.98-1.34-2.98-2.98s1.34-2.98,2.98-2.98
			S37.73,109.22,37.73,110.87z"/>
	</g>
</g>
</svg>
